<svg width="32" height="32" viewBox="0 0 32 32" fill="none" xmlns="http://www.w3.org/2000/svg">
<path d="M12 3H20V4H22V5H24V6H25V7H26L27 8V10H28V12H29V20H28V22H27V24H26V25H25V26H24V27H22V28H20V29H12V28H10V27H8V26H7V25H6V24H5V22H4V20H3V12H4V10H5V8H6V7H7V6H8V5H10V4H12V3Z" fill="#B00023"/>
<rect x="12" y="2" width="8" height="1" fill="#3E0606"/>
<rect x="20" y="3" width="2" height="1" fill="#3E0606"/>
<rect x="22" y="4" width="2" height="1" fill="#3E0606"/>
<rect x="24" y="5" width="1" height="1" fill="#3E0606"/>
<rect x="25" y="6" width="1" height="1" fill="#3E0606"/>
<rect x="26" y="7" width="1" height="1" fill="#3E0606"/>
<rect x="27" y="8" width="1" height="2" fill="#3E0606"/>
<rect x="28" y="10" width="1" height="2" fill="#3E0606"/>
<rect x="29" y="12" width="1" height="8" fill="#3E0606"/>
<rect x="28" y="20" width="1" height="2" fill="#3E0606"/>
<rect x="27" y="22" width="1" height="2" fill="#3E0606"/>
<rect x="26" y="24" width="1" height="1" fill="#3E0606"/>
<rect x="25" y="25" width="1" height="1" fill="#3E0606"/>
<rect x="24" y="26" width="1" height="1" fill="#3E0606"/>
<rect x="22" y="27" width="2" height="1" fill="#3E0606"/>
<rect x="20" y="28" width="2" height="1" fill="#3E0606"/>
<rect x="10" y="28" width="2" height="1" fill="#3E0606"/>
<rect x="8" y="27" width="2" height="1" fill="#3E0606"/>
<rect x="7" y="26" width="1" height="1" fill="#3E0606"/>
<rect x="6" y="25" width="1" height="1" fill="#3E0606"/>
<rect x="5" y="24" width="1" height="1" fill="#3E0606"/>
<rect x="4" y="22" width="1" height="2" fill="#3E0606"/>
<rect x="3" y="20" width="1" height="2" fill="#3E0606"/>
<rect x="2" y="12" width="1" height="8" fill="#3E0606"/>
<rect x="3" y="10" width="1" height="2" fill="#3E0606"/>
<rect x="4" y="8" width="1" height="2" fill="#3E0606"/>
<rect x="5" y="7" width="1" height="1" fill="#3E0606"/>
<rect x="6" y="6" width="1" height="1" fill="#3E0606"/>
<rect x="7" y="5" width="1" height="1" fill="#3E0606"/>
<rect x="8" y="4" width="2" height="1" fill="#3E0606"/>
<rect x="10" y="3" width="2" height="1" fill="#3E0606"/>
<rect x="12" y="29" width="8" height="1" fill="#3E0606"/>
<g opacity="0.63">
<rect x="20" y="11" width="1" height="1" fill="#721225"/>
<rect x="21" y="10" width="1" height="1" fill="#721225"/>
<rect x="22" y="9" width="1" height="1" fill="#721225"/>
<rect x="23" y="8" width="1" height="1" fill="#721225"/>
<rect x="24" y="6" width="1" height="1" fill="#721225"/>
<rect x="24" y="7" width="1" height="1" fill="#721225"/>
<rect x="24" y="8" width="1" height="1" fill="#721225"/>
<rect x="23" y="9" width="1" height="1" fill="#721225"/>
<rect x="22" y="10" width="1" height="1" fill="#721225"/>
<rect x="21" y="11" width="1" height="1" fill="#721225"/>
<rect x="21" y="12" width="2" height="1" fill="#721225"/>
<rect x="20" y="13" width="2" height="1" fill="#721225"/>
<rect x="19" y="14" width="2" height="1" fill="#721225"/>
<rect x="22" y="11" width="1" height="1" fill="#721225"/>
<rect x="23" y="10" width="1" height="1" fill="#721225"/>
<rect x="24" y="9" width="1" height="1" fill="#721225"/>
<rect x="25" y="7" width="1" height="1" fill="#721225"/>
<rect x="25" y="8" width="1" height="1" fill="#721225"/>
<rect x="26" y="8" width="1" height="1" fill="#721225"/>
<rect x="25" y="9" width="2" height="1" fill="#721225"/>
<rect x="24" y="10" width="4" height="1" fill="#721225"/>
<rect x="23" y="11" width="1" height="1" fill="#721225"/>
<rect x="23" y="12" width="2" height="1" fill="#721225"/>
<rect x="24" y="11" width="4" height="1" fill="#721225"/>
<rect x="21" y="9" width="1" height="1" fill="#721225"/>
<rect x="22" y="8" width="1" height="1" fill="#721225"/>
<rect x="23" y="7" width="1" height="1" fill="#721225"/>
<rect x="23" y="6" width="1" height="1" fill="#721225"/>
<rect x="21" y="4" width="1" height="5" fill="#721225"/>
<rect x="22" y="5" width="1" height="5" fill="#721225"/>
<rect x="20" y="5" width="1" height="2" fill="#721225"/>
<rect x="19" y="7" width="1" height="2" fill="#721225"/>
<rect x="20" y="7" width="1" height="3" fill="#721225"/>
<rect x="19" y="8" width="1" height="3" fill="#721225"/>
<rect x="20" y="9" width="1" height="3" fill="#721225"/>
<rect x="19" y="9" width="1" height="3" fill="#721225"/>
<rect x="20" y="8" width="1" height="2" fill="#CA0028"/>
<rect x="19" y="10" width="1" height="1" fill="#CA0028"/>
<rect x="21" y="6" width="1" height="2" fill="#CA0028"/>
<rect x="22" y="5" width="1" height="1" fill="#CA0028"/>
<rect x="23" y="5" width="1" height="1" fill="#721225"/>
<rect x="18" y="9" width="1" height="3" fill="#721225"/>
</g>
<g opacity="0.63">
<rect x="12" y="21" width="1" height="1" transform="rotate(180 12 21)" fill="#721225"/>
<rect x="11" y="22" width="1" height="1" transform="rotate(180 11 22)" fill="#721225"/>
<rect x="10" y="23" width="1" height="1" transform="rotate(180 10 23)" fill="#721225"/>
<rect x="9" y="24" width="1" height="1" transform="rotate(180 9 24)" fill="#721225"/>
<rect x="8" y="26" width="1" height="1" transform="rotate(180 8 26)" fill="#721225"/>
<rect x="8" y="25" width="1" height="1" transform="rotate(180 8 25)" fill="#721225"/>
<rect x="8" y="24" width="1" height="1" transform="rotate(180 8 24)" fill="#721225"/>
<rect x="9" y="23" width="1" height="1" transform="rotate(180 9 23)" fill="#721225"/>
<rect x="10" y="22" width="1" height="1" transform="rotate(180 10 22)" fill="#721225"/>
<rect x="11" y="21" width="1" height="1" transform="rotate(180 11 21)" fill="#721225"/>
<rect x="12" y="20" width="3" height="1" transform="rotate(180 12 20)" fill="#721225"/>
<rect x="12" y="19" width="3" height="1" transform="rotate(180 12 19)" fill="#721225"/>
<rect x="10" y="21" width="1" height="1" transform="rotate(180 10 21)" fill="#721225"/>
<rect x="9" y="22" width="1" height="1" transform="rotate(180 9 22)" fill="#721225"/>
<rect x="8" y="23" width="1" height="1" transform="rotate(180 8 23)" fill="#721225"/>
<rect x="7" y="25" width="1" height="1" transform="rotate(180 7 25)" fill="#721225"/>
<rect x="7" y="24" width="1" height="1" transform="rotate(180 7 24)" fill="#721225"/>
<rect x="6" y="24" width="1" height="1" transform="rotate(180 6 24)" fill="#721225"/>
<rect x="7" y="23" width="2" height="1" transform="rotate(180 7 23)" fill="#721225"/>
<rect x="8" y="22" width="4" height="1" transform="rotate(180 8 22)" fill="#721225"/>
<rect x="9" y="21" width="1" height="1" transform="rotate(180 9 21)" fill="#721225"/>
<rect x="9" y="20" width="2" height="1" transform="rotate(180 9 20)" fill="#721225"/>
<rect x="8" y="21" width="4" height="1" transform="rotate(180 8 21)" fill="#721225"/>
<rect x="11" y="23" width="1" height="1" transform="rotate(180 11 23)" fill="#721225"/>
<rect x="10" y="24" width="1" height="1" transform="rotate(180 10 24)" fill="#721225"/>
<rect x="9" y="25" width="1" height="1" transform="rotate(180 9 25)" fill="#721225"/>
<rect x="9" y="26" width="1" height="1" transform="rotate(180 9 26)" fill="#721225"/>
<rect x="11" y="28" width="1" height="5" transform="rotate(180 11 28)" fill="#721225"/>
<rect x="10" y="27" width="1" height="5" transform="rotate(180 10 27)" fill="#721225"/>
<rect x="12" y="27" width="1" height="2" transform="rotate(180 12 27)" fill="#721225"/>
<rect x="13" y="25" width="1" height="2" transform="rotate(180 13 25)" fill="#721225"/>
<rect x="12" y="25" width="1" height="3" transform="rotate(180 12 25)" fill="#721225"/>
<rect x="13" y="24" width="1" height="3" transform="rotate(180 13 24)" fill="#721225"/>
<rect x="12" y="23" width="1" height="3" transform="rotate(180 12 23)" fill="#721225"/>
<rect x="13" y="23" width="1" height="3" transform="rotate(180 13 23)" fill="#721225"/>
<rect x="12" y="24" width="1" height="2" transform="rotate(180 12 24)" fill="#CA0028"/>
<rect x="13" y="22" width="1" height="1" transform="rotate(180 13 22)" fill="#CA0028"/>
<rect x="11" y="26" width="1" height="2" transform="rotate(180 11 26)" fill="#CA0028"/>
<rect x="10" y="27" width="1" height="1" transform="rotate(180 10 27)" fill="#CA0028"/>
<rect x="9" y="27" width="1" height="1" transform="rotate(180 9 27)" fill="#721225"/>
<rect x="14" y="23" width="1" height="3" transform="rotate(180 14 23)" fill="#721225"/>
</g>
<g opacity="0.63">
<rect x="3" y="16" width="5" height="1" fill="#D6002B"/>
<rect x="3" y="13" width="7" height="1" fill="#A80022"/>
<rect x="3" y="12" width="3" height="1" fill="#A80022"/>
<rect x="3" y="14" width="8" height="1" fill="#A80022"/>
<rect x="7" y="15" width="4" height="1" fill="#A80022"/>
<rect x="3" y="15" width="8" height="1" fill="#D6002B"/>
<rect x="3" y="14" width="4" height="1" fill="#D6002B"/>
<rect x="3" y="17" width="2" height="1" fill="#D6002B"/>
<rect x="16" y="7" width="1" height="4" fill="#D6002B"/>
<rect x="14" y="3" width="1" height="7" fill="#D6002B"/>
<rect x="13" y="3" width="1" height="2" fill="#D6002B"/>
<rect x="12" y="3" width="1" height="4" fill="#A80022"/>
<rect x="13" y="5" width="1" height="5" fill="#A80022"/>
<rect x="14" y="9" width="1" height="2" fill="#A80022"/>
<rect x="15" y="3" width="1" height="8" fill="#D6002B"/>
<rect x="13" y="10" width="1" height="1" fill="#860000"/>
<rect x="10" y="13" width="1" height="1" fill="#860000"/>
<rect x="6" y="12" width="4" height="1" fill="#860000"/>
<rect x="4" y="11" width="4" height="1" fill="#860000"/>
<rect x="4" y="10" width="1" height="1" fill="#860000"/>
<rect x="12" y="10" width="1" height="1" fill="#730D0D"/>
<rect x="9" y="5" width="1" height="2" fill="#730D0D"/>
<rect x="8" y="5" width="1" height="2" fill="#671212"/>
<rect x="5" y="8" width="2" height="1" fill="#671212"/>
<rect x="7" y="9" width="1" height="1" fill="#671212"/>
<rect x="7" y="8" width="1" height="1" fill="#400000"/>
<rect x="6" y="7" width="1" height="1" fill="#400000"/>
<rect x="7" y="6" width="1" height="1" fill="#400000"/>
<rect x="7" y="7" width="1" height="1" fill="#400000"/>
<rect x="8" y="7" width="1" height="1" fill="#400000"/>
<rect x="8" y="8" width="2" height="2" fill="#400000"/>
<rect x="10" y="10" width="1" height="1" fill="#400000"/>
<rect x="9" y="10" width="1" height="1" fill="#671212"/>
<rect x="10" y="9" width="1" height="1" fill="#671212"/>
<rect x="10" y="11" width="1" height="1" fill="#671212"/>
<rect x="9" y="7" width="1" height="1" fill="#671212"/>
<rect x="10" y="6" width="1" height="3" fill="#730D0D"/>
<rect x="8" y="10" width="1" height="2" fill="#730D0D"/>
<rect x="7" y="10" width="1" height="1" fill="#730D0D"/>
<rect x="9" y="11" width="1" height="1" fill="#730D0D"/>
<rect x="5" y="9" width="2" height="2" fill="#730D0D"/>
<rect x="12" y="7" width="1" height="3" fill="#860000"/>
<rect x="11" y="4" width="1" height="4" fill="#860000"/>
<rect x="10" y="4" width="1" height="2" fill="#860000"/>
<rect x="11" y="10" width="1" height="1" fill="#671212"/>
<rect x="11" y="12" width="1" height="1" fill="#671212"/>
<rect x="12" y="12" width="1" height="1" fill="#671212"/>
<rect x="10" y="12" width="1" height="1" fill="#730D0D"/>
<rect x="11" y="13" width="1" height="1" fill="#730D0D"/>
<rect x="11" y="8" width="1" height="2" fill="#730D0D"/>
<rect x="10" y="4" width="1" height="2" fill="#860000"/>
</g>
<g opacity="0.63">
<rect x="29" y="17" width="4" height="1" transform="rotate(180 29 17)" fill="#D6002B"/>
<rect x="29" y="16" width="8" height="1" transform="rotate(180 29 16)" fill="#D6002B"/>
<rect x="29" y="15" width="5" height="1" transform="rotate(180 29 15)" fill="#D6002B"/>
<rect x="29" y="19" width="7" height="1" transform="rotate(180 29 19)" fill="#A80022"/>
<rect x="29" y="20" width="3" height="1" transform="rotate(180 29 20)" fill="#A80022"/>
<rect x="29" y="18" width="8" height="1" transform="rotate(180 29 18)" fill="#A80022"/>
<rect x="25" y="17" width="4" height="1" transform="rotate(180 25 17)" fill="#A80022"/>
<rect x="16" y="25" width="1" height="4" transform="rotate(180 16 25)" fill="#D6002B"/>
<rect x="18" y="29" width="1" height="7" transform="rotate(180 18 29)" fill="#D6002B"/>
<rect x="19" y="29" width="1" height="2" transform="rotate(180 19 29)" fill="#D6002B"/>
<rect x="20" y="29" width="1" height="4" transform="rotate(180 20 29)" fill="#A80022"/>
<rect x="19" y="27" width="1" height="5" transform="rotate(180 19 27)" fill="#A80022"/>
<rect x="18" y="23" width="1" height="2" transform="rotate(180 18 23)" fill="#A80022"/>
<rect x="17" y="29" width="1" height="8" transform="rotate(180 17 29)" fill="#D6002B"/>
<rect x="19" y="22" width="1" height="1" transform="rotate(180 19 22)" fill="#860000"/>
<rect x="22" y="19" width="1" height="1" transform="rotate(180 22 19)" fill="#860000"/>
<rect x="26" y="20" width="4" height="1" transform="rotate(180 26 20)" fill="#860000"/>
<rect x="28" y="21" width="4" height="1" transform="rotate(180 28 21)" fill="#860000"/>
<rect x="28" y="22" width="1" height="1" transform="rotate(180 28 22)" fill="#860000"/>
<rect x="20" y="22" width="1" height="1" transform="rotate(180 20 22)" fill="#730D0D"/>
<rect x="23" y="27" width="1" height="2" transform="rotate(180 23 27)" fill="#730D0D"/>
<rect x="24" y="27" width="1" height="2" transform="rotate(180 24 27)" fill="#671212"/>
<rect x="27" y="24" width="2" height="1" transform="rotate(180 27 24)" fill="#671212"/>
<rect x="25" y="23" width="1" height="1" transform="rotate(180 25 23)" fill="#671212"/>
<rect x="25" y="24" width="1" height="1" transform="rotate(180 25 24)" fill="#400000"/>
<rect x="26" y="25" width="1" height="1" transform="rotate(180 26 25)" fill="#400000"/>
<rect x="25" y="26" width="1" height="1" transform="rotate(180 25 26)" fill="#400000"/>
<rect x="25" y="25" width="1" height="1" transform="rotate(180 25 25)" fill="#400000"/>
<rect x="24" y="25" width="1" height="1" transform="rotate(180 24 25)" fill="#400000"/>
<rect x="24" y="24" width="2" height="2" transform="rotate(180 24 24)" fill="#400000"/>
<rect x="22" y="22" width="1" height="1" transform="rotate(180 22 22)" fill="#400000"/>
<rect x="21" y="21" width="1" height="1" transform="rotate(180 21 21)" fill="#400000"/>
<rect x="23" y="22" width="1" height="1" transform="rotate(180 23 22)" fill="#671212"/>
<rect x="22" y="23" width="1" height="1" transform="rotate(180 22 23)" fill="#671212"/>
<rect x="22" y="21" width="1" height="1" transform="rotate(180 22 21)" fill="#671212"/>
<rect x="23" y="25" width="1" height="1" transform="rotate(180 23 25)" fill="#671212"/>
<rect x="22" y="26" width="1" height="3" transform="rotate(180 22 26)" fill="#730D0D"/>
<rect x="24" y="22" width="1" height="2" transform="rotate(180 24 22)" fill="#730D0D"/>
<rect x="25" y="22" width="1" height="1" transform="rotate(180 25 22)" fill="#730D0D"/>
<rect x="23" y="21" width="1" height="1" transform="rotate(180 23 21)" fill="#730D0D"/>
<rect x="27" y="23" width="2" height="2" transform="rotate(180 27 23)" fill="#730D0D"/>
<rect x="20" y="25" width="1" height="3" transform="rotate(180 20 25)" fill="#860000"/>
<rect x="21" y="28" width="1" height="4" transform="rotate(180 21 28)" fill="#860000"/>
<rect x="22" y="28" width="1" height="2" transform="rotate(180 22 28)" fill="#860000"/>
<rect x="21" y="22" width="1" height="1" transform="rotate(180 21 22)" fill="#671212"/>
<rect x="22" y="20" width="1" height="1" transform="rotate(180 22 20)" fill="#730D0D"/>
<rect x="21" y="24" width="1" height="2" transform="rotate(180 21 24)" fill="#730D0D"/>
<rect x="22" y="28" width="1" height="2" transform="rotate(180 22 28)" fill="#860000"/>
</g>
<path d="M12 19H13V20H19V19H20V18H21V20H20V21H19V22H13V21H12V20H11V18H12V19ZM15 13H14V14H13V15H15V16H11V14H12V13H13V12H11V11H15V13ZM21 13H20V14H19V15H21V16H17V14H18V13H19V12H17V11H21V13Z" fill="white"/>
</svg>
